<svg xmlns="http://www.w3.org/2000/svg" viewBox="0 0 500 500"><g id="freepik--background-simple--inject-73"><path d="M107.19,159c39.48-10.22,95.46,72.77,134.15,59.87,36.33-12.11,34.58-97.12,66.19-118.74,22.57-15.44,72-4.09,103.37,35.69,30,38,57.65,161.92,20.13,192.45-28.53,23.21-111.28-35.52-145.46-21.93-16.34,6.49-69.25,91.24-120.31,96.87S63.6,370.51,56,316.69C44.66,237.13,67.06,169.37,107.19,159Z" style="fill:#FF5722"></path><path d="M107.19,159c39.48-10.22,95.46,72.77,134.15,59.87,36.33-12.11,34.58-97.12,66.19-118.74,22.57-15.44,72-4.09,103.37,35.69,30,38,57.65,161.92,20.13,192.45-28.53,23.21-111.28-35.52-145.46-21.93-16.34,6.49-69.25,91.24-120.31,96.87S63.6,370.51,56,316.69C44.66,237.13,67.06,169.37,107.19,159Z" style="fill:#fff;opacity:0.9"></path></g><g id="freepik--Shadow--inject-73"><ellipse id="freepik--path--inject-73" cx="250" cy="415.69" rx="193.89" ry="11.32" style="fill:#f5f5f5"></ellipse></g><g id="freepik--Announcement--inject-73"><polygon points="382.18 84.45 381.12 83.59 425.32 64.66 426.39 65.53 382.18 84.45" style="fill:#e0e0e0"></polygon><polygon points="114.86 85.5 115.92 84.63 76.64 65.09 75.57 65.96 114.86 85.5" style="fill:#e0e0e0"></polygon><path d="M63,161.69l-.27-1c30.46-8.54,46.83-23.58,47-23.73l.69.73C110.26,137.89,93.73,153.08,63,161.69Z" style="fill:#e0e0e0"></path><path d="M438,162.29c-30.71-8.61-47.25-23.8-47.41-24l.68-.73c.16.15,16.54,15.19,47,23.73Z" style="fill:#e0e0e0"></path><path d="M113.82,82.36h0a84.79,84.79,0,0,1-2.37,52l-1.65,4.43s86.12,13.27,140.28,13.27c61.79,0,141-13.27,141-13.27l-1.79-4.42a77.18,77.18,0,0,1-2.1-52h0S347,95.9,247.74,95.9C171.36,95.9,113.82,82.36,113.82,82.36Z" style="fill:#FF5722"></path><g style="opacity:0.30000000000000004"><path d="M113.82,82.36h0a84.79,84.79,0,0,1-2.37,52l-1.65,4.43s86.12,13.27,140.28,13.27c61.79,0,141-13.27,141-13.27l-1.79-4.42a77.18,77.18,0,0,1-2.1-52h0S347,95.9,247.74,95.9C171.36,95.9,113.82,82.36,113.82,82.36Z" style="fill:#fff"></path></g><ellipse cx="133.65" cy="94.39" rx="14.76" ry="17.79" transform="translate(-15.97 160.62) rotate(-59.11)" style="fill:#FF5722"></ellipse><ellipse cx="133.65" cy="94.39" rx="14.76" ry="17.79" transform="translate(-15.97 160.62) rotate(-59.11)" style="fill:#fff;opacity:0.1"></ellipse><g style="opacity:0.4"><path d="M148.46,97.94a2.67,2.67,0,1,0-.07.83Z" style="fill:#fff"></path><path d="M126.67,83a21.47,21.47,0,0,1,14.55,7.63,8.73,8.73,0,0,0,1.57,1.64,2.33,2.33,0,0,0,2.16.38C148.89,91,140.49,84.75,139,84a16.7,16.7,0,0,0-6.1-1.74C130.83,82.1,128.6,83.2,126.67,83Z" style="fill:#fff"></path></g><ellipse cx="110.76" cy="109.49" rx="16.93" ry="22.67" transform="translate(-37.6 62.09) rotate(-26.95)" style="fill:#FF5722"></ellipse><g style="opacity:0.2"><path d="M123.81,123.63a3.83,3.83,0,0,0-2.73-5c-2.08-.26-3.8,2.2-3,4.31s3.74,3,5.18,1.52Z" style="fill:#fff"></path><path d="M110.23,92.86A30.2,30.2,0,0,1,120.65,111a11.71,11.71,0,0,0,.65,2.81,3.08,3.08,0,0,0,2,1.91c5,1.09.06-11.32-1-13.11a23.2,23.2,0,0,0-5.21-6.1C115,94.84,112.1,94.39,110.23,92.86Z" style="fill:#fff"></path></g><ellipse cx="112.73" cy="91.98" rx="13.92" ry="16.77" transform="translate(-30.26 118.85) rotate(-49.85)" style="fill:#FF5722"></ellipse><ellipse cx="112.73" cy="91.98" rx="13.92" ry="16.77" transform="translate(-30.26 118.85) rotate(-49.85)" style="fill:#fff;opacity:0.2"></ellipse><g style="opacity:0.4"><path d="M126,97.53a2.53,2.53,0,1,0-.2.76Z" style="fill:#fff"></path><path d="M108,80.36a20.23,20.23,0,0,1,12.38,9.3,8.08,8.08,0,0,0,1.22,1.77,2.15,2.15,0,0,0,2,.68c3.91-1-3-8.06-4.19-9a15.8,15.8,0,0,0-5.41-2.54C112,80.12,109.72,80.8,108,80.36Z" style="fill:#fff"></path></g><ellipse cx="368.32" cy="96.94" rx="17.79" ry="14.76" transform="translate(2.48 202.86) rotate(-30.89)" style="fill:#FF5722"></ellipse><ellipse cx="368.32" cy="96.94" rx="17.79" ry="14.76" transform="translate(2.48 202.86) rotate(-30.89)" style="fill:#fff;opacity:0.1"></ellipse><g style="opacity:0.4"><path d="M353.51,100.49a2.69,2.69,0,1,1,.08.82Z" style="fill:#fff"></path><path d="M375.3,85.58a21.53,21.53,0,0,0-14.55,7.63,8.48,8.48,0,0,1-1.57,1.65,2.29,2.29,0,0,1-2.16.37c-3.93-1.65,4.46-7.93,5.92-8.67A16.65,16.65,0,0,1,369,84.82C371.14,84.65,373.38,85.75,375.3,85.58Z" style="fill:#fff"></path></g><ellipse cx="391.21" cy="112.04" rx="22.67" ry="16.93" transform="translate(114.03 409.98) rotate(-63.05)" style="fill:#FF5722"></ellipse><g style="opacity:0.2"><path d="M378.16,126.17a3.83,3.83,0,0,1,2.73-5c2.09-.26,3.8,2.2,3,4.32s-3.74,3-5.18,1.51Z" style="fill:#fff"></path><path d="M391.75,95.4a30.24,30.24,0,0,0-10.43,18.16,11.92,11.92,0,0,1-.64,2.81,3.14,3.14,0,0,1-2,1.91c-5,1.08-.05-11.33,1-13.11a23.1,23.1,0,0,1,5.22-6.11C387,97.38,389.88,96.94,391.75,95.4Z" style="fill:#fff"></path></g><ellipse cx="389.25" cy="94.52" rx="16.77" ry="13.92" transform="translate(30.76 273.23) rotate(-40.15)" style="fill:#FF5722"></ellipse><ellipse cx="389.25" cy="94.52" rx="16.77" ry="13.92" transform="translate(30.76 273.23) rotate(-40.15)" style="fill:#fff;opacity:0.2"></ellipse><g style="opacity:0.4"><path d="M376,100.07a2.52,2.52,0,1,1,.19.76Z" style="fill:#fff"></path><path d="M394,82.9a20.3,20.3,0,0,0-12.38,9.3A8.34,8.34,0,0,1,380.43,94a2.19,2.19,0,0,1-1.95.67c-3.92-.94,2.94-8.06,4.18-9a15.58,15.58,0,0,1,5.42-2.54C390,82.66,392.26,83.35,394,82.9Z" style="fill:#fff"></path></g></g><g id="freepik--character-2--inject-73"><path d="M295.37,175.49c-.53,0-3.52,3.85-3.69,3.2a55,55,0,0,0-4.61-5.39,4.89,4.89,0,0,1-.93-5.1l1.19-3a3.91,3.91,0,0,1,2.69-2.36l3.45,1.38.37,4.24Z" style="fill:#dd8c6a"></path><path d="M296.35,178.09l-.05-5.36s-3.73-1.29-5.51,1-1.27,3.61-1.27,3.61a10,10,0,0,0,4.41,4.18C297.34,183.35,296.35,178.09,296.35,178.09Z" style="fill:#FF5722"></path><path d="M296.35,178.09l-.05-5.36s-3.73-1.29-5.51,1-1.27,3.61-1.27,3.61a10,10,0,0,0,4.41,4.18C297.34,183.35,296.35,178.09,296.35,178.09Z" style="opacity:0.2"></path><path d="M330.91,214.76c-4.55-4-13.37-10.78-19.27-15.36-2.72-2.11-8.77-13.7-12-18.37a16.61,16.61,0,0,0-3.29-2.94L293.09,181a4.07,4.07,0,0,0-.66,3.4c2.3,6.38,9.68,21.17,12.26,23.74,7.52,7.48,21.72,19.75,24.6,19.51C333.6,227.31,334.41,217.83,330.91,214.76Z" style="fill:#FF5722"></path><path d="M330.91,214.76c-4.55-4-13.37-10.78-19.27-15.36-2.72-2.11-8.77-13.7-12-18.37a16.61,16.61,0,0,0-3.29-2.94L293.09,181a4.07,4.07,0,0,0-.66,3.4c2.3,6.38,9.68,21.17,12.26,23.74,7.52,7.48,21.72,19.75,24.6,19.51C333.6,227.31,334.41,217.83,330.91,214.76Z" style="fill:#fff;opacity:0.2"></path><g id="freepik--Character--inject-166--inject-73"><path d="M376.88,423.28a11.39,11.39,0,0,1,2.1-3.13h0s3.55-5.85,1.07-16.2l4.82-4.08a5,5,0,0,1,3.43,1.49,16.82,16.82,0,0,1,1.61,2.16c1.69,3,5.37,9.92,5.37,9.92l-.72.39a57.83,57.83,0,0,0-4-5.92c-1.52-1.77-1.55,1.33-1,4s-1.25,6.79-5.81,9.44C378.45,424.46,376.12,425.45,376.88,423.28Z" style="fill:#263238"></path><path d="M385.82,409.34c0,1.75,1.1,4.85-.51,7.13a8.46,8.46,0,0,1-6.33,3.68s2.78-4.55,1.71-12.74a30.71,30.71,0,0,0-.64-3.45s4.17-3,6.07-3.36l.95,2.73a24.54,24.54,0,0,1-1.13,5.28A2,2,0,0,0,385.82,409.34Z" style="fill:#dd8c6a"></path><path d="M387.07,403.33a24.54,24.54,0,0,1-1.13,5.28,2,2,0,0,0-.12.73l-3.91,1.57-1.22-3.5-4.32-12.48,6.83-2.76,2.92,8.43Z" style="fill:#dd8c6a"></path><path d="M382.88,391.24,376,394l1.87,5.38s4.95,1,7-2.39l.27.79Z" style="opacity:0.2;isolation:isolate"></path><path d="M325.21,418.46a11.41,11.41,0,0,1,3.45-1.5h0s6.15-3,9.64-13.06l6.39-1.17A4.55,4.55,0,0,1,347,405.5a26.41,26.41,0,0,1-.12,3.33c-.18,3.47-.9,12.43-.9,12.43l-.82-.05a81.69,81.69,0,0,0-.11-8.28c-.33-2.31-2,.28-3,2.81s-4.71,5-10,4.82C325.85,420.28,323.36,419.84,325.21,418.46Z" style="fill:#263238"></path><path d="M343.57,407.75a12.07,12.07,0,0,1-2.81,3.24c-1.29.95-1.79,5.06-4.77,6.28a8.56,8.56,0,0,1-7.33-.3s4.64-2.28,8.14-9.47a8.69,8.69,0,0,0,.74-5.36l-2.11-11.76,7.74-.87,1.69,14.09A5.8,5.8,0,0,1,343.57,407.75Z" style="fill:#dd8c6a"></path><path d="M334.62,384.74l1.69,10.54h.58a8.5,8.5,0,0,0,6.82-1.28l-.12,0-1.13-10Z" style="opacity:0.2;isolation:isolate"></path><path d="M363.31,219.75a6.47,6.47,0,0,0,.05-1.46c-.53-5.47.22-11.75-5.25-11.21h0a17,17,0,0,1-7.61,2.47l-.24,0a99.28,99.28,0,0,0-13.79,2.54c-.77.19-1.56.43-2.33.67-1.06.34-2.1.68-3.09,1-4.71,1.63-4.23,6.76-5.22,11.63-1.19,5.85-2.95,7.4,6.48,24.54,1.38,2.53.07,9.07,2.8,11,6.29,4.46,29.83-2.9,29.83-2.9S360.22,237.76,363.31,219.75Z" style="fill:#FF5722"></path><g style="opacity:0.2"><path d="M363.31,219.75a6.47,6.47,0,0,0,.05-1.46c-.53-5.47.22-11.75-5.25-11.21h0a17,17,0,0,1-7.61,2.47l-.24,0a99.28,99.28,0,0,0-13.79,2.54c-.77.19-1.56.43-2.33.67-1.06.34-2.1.68-3.09,1-4.71,1.63-4.23,6.76-5.22,11.63-1.19,5.85-2.95,7.4,6.48,24.54,1.38,2.53.07,9.07,2.8,11,6.29,4.46,29.83-2.9,29.83-2.9S360.22,237.76,363.31,219.75Z" style="fill:#fff"></path></g><path d="M335.11,261s-2.39,38.6-4.42,68.25c-1.62,23.57,2.25,63.94,2.25,63.94a16.45,16.45,0,0,0,12.36-1.48s2.49-37.07,1.07-59.57c9.09-32.7,22.12-63.54,13.14-75.8Z" style="fill:#263238"></path><path d="M349.09,283.92,361.7,277c-1.9,11.68-6.74,26.32-11.48,42C347,306.45,345.61,293.39,349.09,283.92Z" style="opacity:0.30000000000000004;isolation:isolate"></path><path d="M341,259.86s7.23,32.25,12,61c1.95,20.66,23.11,77.43,23.11,77.43l3.83-.67a9.93,9.93,0,0,0,4.9-2.35l1.31-1.16s-5.84-41-11.92-57c.76-33.24,2.39-70.37-9.9-81.76Z" style="fill:#263238"></path></g><path d="M335.55,213.28c-.63,1.83-1.56,5.12-.77,6.45.11-.73,1.6-3.1,2.67-2a6.17,6.17,0,0,1,.92,1.12l2,3.22c.28.46.65,1,1.19,1s1.13-.58,1.47-1.14l2.08-3.46a5.44,5.44,0,0,1,1.82-2.09c.81-.46,3.72.56,4.19,1.37.11-2.14.68-6.67.52-7.91s-2.62-3-3.85-3.25a4.48,4.48,0,0,0-2.45.41C341.86,208.34,336.91,209.37,335.55,213.28Z" style="fill:#fff"></path><path d="M345.93,200.75c.36,3.51,1.28,7.07,3.36,8.47,0,0,2.19,2.82-5.24,8.09-1.23.95-3.06,1.95-4.15.84-2.28-2.39-2.27-4.56-1.89-5.92a4,4,0,0,1,1.28-1.89c1.64-1.49.63-3.27-.83-8.67l3.44-2.07a2.29,2.29,0,0,1,4,1.15Z" style="fill:#dd8c6a"></path><path d="M341.91,199.57a2.3,2.3,0,0,1,4,.86,14.87,14.87,0,0,1-6,6.64c-.11-1.41-1.18-2.85-1.68-4.18-.16-.44.42-.81.22-1.24Z" style="opacity:0.2;isolation:isolate"></path><path d="M342.24,175.85a6.57,6.57,0,0,0-6.23-1.2,13.21,13.21,0,0,0-5.5,3.57,23,23,0,0,0-6,9.8,17.17,17.17,0,0,0,.55,11.36,9.39,9.39,0,0,0,3.37,4.33,8.51,8.51,0,0,0,8.34.08,15.48,15.48,0,0,0,6-6.17c1.92-3.28,5.13-11.44,2.16-17.67A13.17,13.17,0,0,0,342.24,175.85Z" style="fill:#263238"></path><path d="M347.1,200.14c-3.09,1.22-4.77,2.33-5.49,1.72-.91-.79,1.83-4.53,2.05-5.72a9,9,0,0,1,4.2-6.1,7.38,7.38,0,0,1,7.29,0,5.27,5.27,0,0,1,2.53,3.52c.24,1.51-1.07,2.46-2.16,3.33C353.14,198.78,350,199,347.1,200.14Z" style="fill:#263238"></path><path d="M348.53,187.89c-.22,7.09-.16,10.09-3.56,13.91-5.12,5.73-13.6,4.11-15.5-2.86-1.68-6.27-1.05-16.8,5.67-20S348.74,180.8,348.53,187.89Z" style="fill:#dd8c6a"></path><path d="M346,188.05c-1.44.71-1.27,7.38,2.15,7.14S350.67,185.73,346,188.05Z" style="fill:#263238"></path><path d="M350.3,194.38a5.37,5.37,0,0,1-2.21,3.3c-1.51,1-2.78-.21-2.79-1.93s.76-3.94,2.48-4.26A2.25,2.25,0,0,1,350.3,194.38Z" style="fill:#dd8c6a"></path><path d="M341.45,175.11c-9.67,1.65-9,8.07-.66,12.18,4.62,2.27,10.76,7.48,6.83,15.79-1.25,2.65,14.55-7.17,10.12-13C349.23,179,348.9,172.64,341.45,175.11Z" style="fill:#263238"></path><path d="M336.92,190.67c0,.57-.25,1.06-.64,1.07s-.68-.43-.7-1,.26-1.07.64-1.08S336.9,190.09,336.92,190.67Z" style="fill:#263238"></path><path d="M330.52,191c0,.57-.25,1.05-.64,1.07s-.68-.42-.7-1,.26-1.06.64-1.08S330.5,190.43,330.52,191Z" style="fill:#263238"></path><path d="M330,190l-1.37-.33S329.35,190.74,330,190Z" style="fill:#263238"></path><path d="M332.69,191.73a17.87,17.87,0,0,1-1.83,4.32,2.64,2.64,0,0,0,2.26.15Z" style="fill:#c13b37"></path><path d="M338.92,188.2a.23.23,0,0,1-.14-.09,2.57,2.57,0,0,0-2.12-1,.34.34,0,0,1-.37-.29h0a.34.34,0,0,1,.3-.37,3.2,3.2,0,0,1,2.75,1.25.35.35,0,0,1-.06.48A.32.32,0,0,1,338.92,188.2Z" style="fill:#263238"></path><path d="M327.92,188.07l0-.06a.33.33,0,0,1,.11-.46,3.23,3.23,0,0,1,3-.24.34.34,0,0,1-.31.61,2.58,2.58,0,0,0-2.41.2A.33.33,0,0,1,327.92,188.07Z" style="fill:#263238"></path><path d="M336.38,189.68l-1.37-.33S335.74,190.4,336.38,189.68Z" style="fill:#263238"></path><path d="M333,197.86a32.71,32.71,0,0,1,7.05-1.2,4.16,4.16,0,0,1-4.07,3.66A2.71,2.71,0,0,1,333,197.86Z" style="fill:#263238"></path><path d="M337.05,198.79a4.42,4.42,0,0,0-2.83,1.15,2.62,2.62,0,0,0,1.74.37,4.42,4.42,0,0,0,2.83-1.15A2.62,2.62,0,0,0,337.05,198.79Z" style="fill:#ff5652"></path><path d="M333.23,197.78a1.14,1.14,0,0,0,.91.8,24.68,24.68,0,0,0,4.59-.9,1.45,1.45,0,0,0,1.08-1A38.29,38.29,0,0,0,333.23,197.78Z" style="fill:#fff"></path><path d="M393.49,169l-3-8.67,7.86-.08a42.53,42.53,0,0,1-.65,8.08Z" style="fill:#dd8c6a"></path><path d="M393.11,154.87l1.87.18a2.09,2.09,0,0,1,1.74,1.28l1.63,3.9-7.86.08.33-3.54A2.1,2.1,0,0,1,393.11,154.87Z" style="fill:#dd8c6a"></path><path d="M392.77,166.44l2.87-.33a3,3,0,0,1,3.11,3.94l-1.42,3.9-5.38-.9Z" style="fill:#FF5722"></path><path d="M392.77,166.44l3.05-.35a2.84,2.84,0,0,1,3,3.79L397.33,174l-5.38-.9Z" style="opacity:0.2"></path><path d="M397.77,174.5S392.23,198.79,364,221c-7.3,5.76-13.82-9.66-5.91-13.95,5.87-3.19,18.66-9.6,23.64-17.82s4.93-14.1,10.2-16.21S397.77,174.5,397.77,174.5Z" style="fill:#FF5722"></path><path d="M397.77,174.5S392.23,198.79,364,221c-7.3,5.76-13.82-9.66-5.91-13.95,5.87-3.19,18.66-9.6,23.64-17.82s4.93-14.1,10.2-16.21S397.77,174.5,397.77,174.5Z" style="fill:#fff;opacity:0.2"></path></g><g id="freepik--character-1--inject-73"><polygon points="109.94 402.38 109.76 410.53 117.61 411.63 118.46 402.74 109.94 402.38" style="fill:#b55b52"></polygon><path d="M119.29,412.27a.21.21,0,0,1-.16-.19.2.2,0,0,1,.12-.21c.15-.07,3.48-1.63,5-1.08a1.11,1.11,0,0,1,.64.56.81.81,0,0,1-.06.94c-.42.46-1.61.57-2.74.47A15.31,15.31,0,0,1,119.29,412.27ZM120,412c1.68.35,4,.53,4.46,0,.06-.07.13-.19,0-.48a.58.58,0,0,0-.4-.33,1.37,1.37,0,0,0-.4-.09A10,10,0,0,0,120,412Z" style="fill:#FF5722"></path><path d="M119.18,412.25a.2.2,0,0,1-.08-.2c0-.12.47-2.55,1.71-3.41a1.58,1.58,0,0,1,1.23-.27c.59.11.75.42.75.67.11,1-2.24,2.84-3.37,3.23h-.1A.17.17,0,0,1,119.18,412.25Zm2.68-3.49a1.17,1.17,0,0,0-.77.21,5.14,5.14,0,0,0-1.44,2.7c1.18-.57,2.75-2,2.74-2.63,0-.05,0-.21-.41-.28Z" style="fill:#FF5722"></path><path d="M118.47,410.92l-10-.82a.8.8,0,0,0-.83.56l-2.47,7.95a1.34,1.34,0,0,0,.87,1.68,1.27,1.27,0,0,0,.28.06c3.59.23,6.8.3,11.26.67,5.27.44,3.88,1,10.07,1.56,3.74.36,4.77-3.83,3.2-4.17-7.17-1.51-7.74-3.76-10.32-6.59A3.21,3.21,0,0,0,118.47,410.92Z" style="fill:#263238"></path><polygon points="118 407.54 109.83 407.16 109.92 403 118.34 404.06 118 407.54" style="opacity:0.2"></polygon><polygon points="148.47 403 149.01 411.14 156.92 411.54 156.99 402.61 148.47 403" style="fill:#b55b52"></polygon><path d="M158.66,412a.24.24,0,0,1-.18-.18.22.22,0,0,1,.11-.22c.14-.08,3.32-1.93,4.85-1.52a1.17,1.17,0,0,1,.68.51.8.8,0,0,1,0,.94c-.37.49-1.54.71-2.68.71A16.37,16.37,0,0,1,158.66,412Zm.7-.29c1.7.2,4,.17,4.43-.43.06-.08.12-.21,0-.48a.57.57,0,0,0-.42-.3,2,2,0,0,0-.42,0A9.94,9.94,0,0,0,159.36,411.74Z" style="fill:#FF5722"></path><path d="M158.54,412a.25.25,0,0,1-.1-.2c0-.11.25-2.58,1.4-3.55a1.61,1.61,0,0,1,1.21-.37c.6.05.78.35.81.6.2,1-2,3-3.08,3.52a.14.14,0,0,1-.09,0A.26.26,0,0,1,158.54,412Zm2.37-3.71a1.19,1.19,0,0,0-.75.27,5.11,5.11,0,0,0-1.2,2.82c1.13-.68,2.56-2.24,2.5-2.86,0-.06,0-.21-.43-.24Z" style="fill:#FF5722"></path><path d="M157.72,410.76l-10,.06a.79.79,0,0,0-.78.63l-1.76,8.14a1.34,1.34,0,0,0,1,1.59.86.86,0,0,0,.28,0c3.6-.09,6.8-.31,11.28-.33,5.29,0,3.95.61,10.17.66,3.75,0,4.41-4.24,2.82-4.44-7.28-.87-8-3.06-10.87-5.64A3.18,3.18,0,0,0,157.72,410.76Z" style="fill:#263238"></path><polygon points="156.95 407.43 148.78 407.77 148.51 403.62 156.98 403.94 156.95 407.43" style="opacity:0.2"></polygon><path d="M129.37,243.76l13.15,88,3.62,73.72,12.32-1.32s2.74-36.81,1.27-75.52c-1.31-35-6.8-71.51-7.49-83.17l-4.43-8.12-9.07,1Z" style="fill:#FF5722"></path><g style="opacity:0.1"><path d="M129.37,243.76l13.15,88,3.62,73.72,12.32-1.32s2.74-36.81,1.27-75.52c-1.31-35-6.8-71.51-7.49-83.17l-4.43-8.12-9.07,1Z" style="fill:#fff"></path></g><path d="M116.78,243.26l-8.92,161,11.88.65s17.92-130,20.4-154.69l-4.88-10.41-8.74-.48Z" style="fill:#FF5722"></path><g style="opacity:0.1"><path d="M116.78,243.26l-8.92,161,11.88.65s17.92-130,20.4-154.69l-4.88-10.41-8.74-.48Z" style="fill:#fff"></path></g><polygon points="135.72 286.24 139.16 309.23 137.02 268.86 135.72 286.24" style="opacity:0.2"></polygon><path d="M170.41,217.49a70.6,70.6,0,0,1-6.57-4.2l4.75-5.85,2,1,4.67-21.53.68-3s4-.93,4.07,3.6l-.19,13.74c0,.45,0,.89,0,1.31-.45,10.33-4.35,16.63-6.94,15.95a12.09,12.09,0,0,1-2.39-1" style="fill:#b55b52"></path><path d="M173.13,176.61l3.31-2.12c.6,3.53,3.84,6.4,6.31,8.11,1.18.82,1.57,2.61.69,3.17l-2.14,1.38C178.69,188.82,173.13,176.61,173.13,176.61Z" style="fill:#FF5722"></path><path d="M171.83,177.45l7.56-4.85a5.33,5.33,0,0,0,1.6-7.33h0a5.33,5.33,0,0,0-7.33-1.6l-7.56,4.86a5.3,5.3,0,0,0-1.6,7.32h0A5.31,5.31,0,0,0,171.83,177.45Z" style="fill:#FF5722"></path><path d="M171.83,177.45l7.56-4.85a5.33,5.33,0,0,0,1.6-7.33h0a5.33,5.33,0,0,0-7.33-1.6l-7.56,4.86a5.3,5.3,0,0,0-1.6,7.32h0A5.31,5.31,0,0,0,171.83,177.45Z" style="opacity:0.30000000000000004"></path><path d="M194.81,170.29l-14.05,5.34c-1.12.72-10.41-13.75-9.29-14.47l10.72-10.54Z" style="fill:#FF5722"></path><path d="M187.47,161.11c3.48,5.43,6.77,9.54,7.34,9.18s-1.8-5.07-5.28-10.5-6.77-9.54-7.34-9.17S184,155.68,187.47,161.11Z" style="fill:#FF5722"></path><path d="M187.47,161.11c3.48,5.43,6.77,9.54,7.34,9.18s-1.8-5.07-5.28-10.5-6.77-9.54-7.34-9.17S184,155.68,187.47,161.11Z" style="opacity:0.30000000000000004"></path><path d="M190.87,159.51c-.85-1.33-2.73-1.85-3.36-1.44s-.45,1.81.4,3.14,2.06,2.07,2.69,1.67A2.69,2.69,0,0,0,190.87,159.51Z" style="fill:#FF5722"></path><path d="M174.94,187.84l.38-2.9a8.65,8.65,0,0,1,2.22-4.78l1.7-1.84a.89.89,0,0,1,1.26-.06,14.87,14.87,0,0,1,4.05,5.64,1.68,1.68,0,0,1-.33,1.62l-3.69,3.88c-.57.68-1.32,1.13-2.07.65Z" style="fill:#b55b52"></path><path d="M179.78,201.27l0,1.32h0C179.76,202.16,179.77,201.72,179.78,201.27Z" style="fill:#b25b52"></path><path d="M153.57,255a51.26,51.26,0,0,1-.11-8.91c2.86-28.19,2.61-45.66,2.45-50.63a2.18,2.18,0,0,0-1.44-2c-19.42-7-34.49-3.77-39.36-2.36a2.19,2.19,0,0,0-1.58,2.21c.42,8.37,2.26,46,2.14,59.59,0,2-.32,6.78-.5,9.43a2.19,2.19,0,0,0,1.71,2.28c4.37,1,15.33,3,18.92-.72a2.13,2.13,0,0,1,3-.05c1.32,1.2,3.53,2.34,7.14,2.28,3.44-.05,5.71-.22,7.16-.39a2.18,2.18,0,0,0,1.87-2.6C154.45,260.66,153.7,256.75,153.57,255Z" style="fill:#263238"></path><path d="M139.44,190.26l-1.33-11.85-8.34-3.08L129,189.78l3.77,3.69,4.48.05,3.2-3.13Z" style="fill:#b55b52"></path><path d="M141.26,189.5c-.07.61-1.52,16.12-4,38.13h0l-10.8-38.77.64-.1,7.09,4,2.22.12,4.32-3.54.06,0Z" style="fill:#fff"></path><polygon points="128.14 188.58 135.63 192.88 132.16 196.98 126.42 188.87 128.14 188.58" style="fill:#FF5722"></polygon><polygon points="128.14 188.58 135.63 192.88 132.16 196.98 126.42 188.87 128.14 188.58" style="fill:#fff;opacity:0.7000000000000001"></polygon><polygon points="141.26 189.49 141.26 189.5 138.27 197.32 135.44 193.11 135.27 192.86 135.4 192.74 139.71 189.16 140.69 189.37 140.75 189.38 141.26 189.49" style="fill:#FF5722"></polygon><polygon points="141.26 189.49 141.26 189.5 138.27 197.32 135.44 193.11 135.27 192.86 135.4 192.74 139.71 189.16 140.69 189.37 140.75 189.38 141.26 189.49" style="fill:#fff;opacity:0.7000000000000001"></polygon><path d="M129.4,182.05c1.41,2.41,4.74,4.59,9.76,5.74l-.78-6.64-8.69-3.22Z" style="opacity:0.1"></path><path d="M173.92,190.59l.09-3.5a11.23,11.23,0,0,1,8.05,1.81l-2,3.52Z" style="fill:#FF5722"></path><path d="M173.92,190.59l.09-3.5a11.23,11.23,0,0,1,8.05,1.81l-2,3.52Z" style="fill:#fff;opacity:0.8"></path><path d="M152.5,166.2c-.36,1.37-1.83,2.54-3.18,2.09a2.48,2.48,0,0,1,.91,2.15,1.4,1.4,0,0,1-1.44.91,3.77,3.77,0,0,1-.79,3.78,4.51,4.51,0,0,1-4,1.42c0,1.5-1.76,2.91-3.13,2.32-2,.94-3.33,2-5.31,3,.57-4.57-3.46,0-5.62,0-2-1-3.33-2.06-5.31-3-1.38.59-3.16-.82-3.14-2.32a4.53,4.53,0,0,1-4-1.42,3.79,3.79,0,0,1-.79-3.78,1.39,1.39,0,0,1-1.43-.91,2.5,2.5,0,0,1,.9-2.15c-1.35.45-2.82-.72-3.17-2.09a6.33,6.33,0,0,1,.7-4.13c.75-1.63,2-3.15,3.79-2.82a1.72,1.72,0,0,1,.33-1.87c.47-.48,1.59-1,2.2-.74a5,5,0,0,1,1-4.76,7,7,0,0,1,5.59-1.67,4,4,0,0,1,5.86-4.42l.23.13.22-.13a4,4,0,0,1,5.86,4.42,7,7,0,0,1,5.6,1.67,5,5,0,0,1,1,4.76c.61-.28,1.73.26,2.2.74a1.72,1.72,0,0,1,.34,1.87c1.76-.33,3,1.19,3.78,2.82A6.4,6.4,0,0,1,152.5,166.2Z" style="fill:#263238"></path><path d="M124.2,166.91c.38,7.26.4,10.33,4,14.08,5.46,5.65,14.29,3.58,16.09-3.64,1.61-6.5.71-17.32-6.38-20.22a9.91,9.91,0,0,0-13.74,9.78Z" style="fill:#b55b52"></path><path d="M135.75,168.9c0,.6.31,1.08.69,1.09s.7-.48.71-1.07-.31-1.07-.69-1.08S135.78,168.35,135.75,168.9Z" style="fill:#263238"></path><path d="M142.42,169c0,.6.31,1.08.69,1.08s.7-.47.71-1.06-.31-1.08-.69-1.07S142.43,168.39,142.42,169Z" style="fill:#263238"></path><path d="M140.35,170a16.27,16.27,0,0,0,2.08,3.79,2.58,2.58,0,0,1-2.11.37Z" style="fill:#c13b37"></path><path d="M133,167.25a.33.33,0,0,0,.37-.16,4.11,4.11,0,0,1,2.88-1.58.36.36,0,0,0,.32-.38.33.33,0,0,0-.37-.31h0a4.68,4.68,0,0,0-3.42,1.93.34.34,0,0,0,.13.47h0A.15.15,0,0,0,133,167.25Z" style="fill:#263238"></path><path d="M144.45,166.19a.37.37,0,0,0,.34-.11.35.35,0,0,0,0-.49,3.39,3.39,0,0,0-3.07-.91.32.32,0,0,0-.25.39v0a.34.34,0,0,0,.42.24h0a2.81,2.81,0,0,1,2.4.76A.38.38,0,0,0,144.45,166.19Z" style="fill:#263238"></path><path d="M141.05,176.4a19.44,19.44,0,0,0-.67,2.79h-.51c-2.29,0-3.34-.8-3.82-1.64a3.08,3.08,0,0,1-.35-1.36,3.18,3.18,0,0,1,.08-.8,10.93,10.93,0,0,0,4.49,1C140.75,176.41,141.05,176.4,141.05,176.4Z" style="fill:#263238"></path><path d="M140.27,176.38l-.22.82c-2.16,0-3.68-.35-4.35-1a3.18,3.18,0,0,1,.08-.8A10.93,10.93,0,0,0,140.27,176.38Z" style="fill:#fff"></path><path d="M139.87,179.19c-2.29,0-3.34-.8-3.82-1.64a7.41,7.41,0,0,1,2.54.53A2.8,2.8,0,0,1,139.87,179.19Z" style="fill:#de5753"></path><path d="M135.31,174.34a3.19,3.19,0,0,0,3.51,1.72,1.1,1.1,0,0,0,1-.86c-.65-.17-1.51.25-2.25.15C137,175.28,135.59,174.94,135.31,174.34Z" style="fill:#263238"></path><path d="M144.27,175.21a3.21,3.21,0,0,1-3.77,1,1.12,1.12,0,0,1-.78-1c.68,0,1.44.54,2.18.59C142.48,175.81,143.88,175.74,144.27,175.21Z" style="fill:#263238"></path><path d="M122.18,172.48a5.29,5.29,0,0,0,2.62,3c1.65.78,2.8-.61,2.61-2.35-.18-1.55-1.25-3.84-3-3.94a2.35,2.35,0,0,0-2.2,3.3Z" style="fill:#b55b52"></path><path d="M83.46,209.58a70,70,0,0,1-5.77-5.75,17.93,17.93,0,0,1-1.81-3.33l-3-.14s-5.47,1.49-4.3,4.82S81,213,81,213Z" style="fill:#b55b52"></path><path d="M87.19,210.84s-2.47-2.45-4.38-2.86a9.24,9.24,0,0,1-3.69,4.75l4.42,2.91Z" style="fill:#FF5722"></path><path d="M87.19,210.84s-2.47-2.45-4.38-2.86a9.24,9.24,0,0,1-3.69,4.75l4.42,2.91Z" style="fill:#fff;opacity:0.8"></path><path d="M115.62,191s9.6-.1-3.18,23.73c-2.6,4.85-7.42,16.38-20.35,8.35l-10.52-7.89s3.59-2.41,4.46-5.79c0,0,9,3.48,14.77,5.48,0,0,2.63-10.72,6.67-17.92C107.47,196.94,109.46,193.07,115.62,191Z" style="fill:#263238"></path><path d="M172.8,218.53c-2.43-.45-6.42-3.58-6.68-3.78h0c-6.46-3.7-13.37-10.86-13.37-10.86l.59-10.82a56,56,0,0,1,17.73,12.72l3.34-15.05c4-1.13,5.66,1.69,5.66,1.69s-.18,2.15-.48,13.43S175.31,219,172.8,218.53Z" style="fill:#263238"></path><path d="M123.78,169.29a12.61,12.61,0,0,0,3.07,6.43c.63-.64,1.21-1.21,1.85-1.84a7.87,7.87,0,0,1-3.28-7.2c-.38-.14-1-.06-1.38-.2A6.52,6.52,0,0,0,123.78,169.29Z" style="fill:#263238"></path><path d="M121.34,164.8a3,3,0,0,0,6,0,2.17,2.17,0,0,0,2.43.19,2,2,0,0,0,1-2.13,4.28,4.28,0,0,0,4.44-3.77c1,.77,1.81.53,2.55-.48a2.69,2.69,0,0,0,3.34,2.41,3.93,3.93,0,0,0,4,4,2,2,0,0,0,2.35,1.66c.18-.72.38-1.63.56-2.35a31.45,31.45,0,0,1-6.62-6.86c-1-1.35-3-2-4.54-2.7-3.34-1.44-7.37-.29-10.15,2S121.31,165.29,121.34,164.8Z" style="fill:#263238"></path></g><g id="freepik--Confetti--inject-73"><path d="M82,126.21a4.69,4.69,0,0,1-.85,1.91c-.45.65-1.06,1.17-1.5,1.82-.15.22,1.77,2.39,2.09,2.34a2.32,2.32,0,0,0,1.81-1.46,4.35,4.35,0,0,0,.22-2.62c0-.37-.57-.82-.8-1.08a12.76,12.76,0,0,1-1-.91Z" style="fill:#FF5722"></path><path d="M81.68,162.52c-.56-1.3-2.1-1.9-3.37-2.35s-2.92-.95-4.22-.32c-.42.21-2.08,3-1.79,3.37.67.82,2.78.8,3.8,1.12,1.25.39,2.6,1.38,3.91,1.34.41,0,1.82-2.79,1.67-3.16Z" style="fill:#FF5722"></path><path d="M101.45,108.57a6,6,0,0,0-2.71,2.27A6.72,6.72,0,0,0,97,114a7.21,7.21,0,0,0,2.25,2.52c.92-.6,1.46-1.87,2.15-2.73a12.55,12.55,0,0,0,2.22-2.8c.13-.32-1.86-2.52-2.18-2.45Z" style="fill:#FF5722"></path><path d="M210.71,156a5.9,5.9,0,0,0-2.71,2.27,6.74,6.74,0,0,0-1.74,3.19,7.21,7.21,0,0,0,2.25,2.52c.93-.6,1.46-1.87,2.15-2.73a12.6,12.6,0,0,0,2.23-2.8c.12-.32-1.87-2.53-2.18-2.45Z" style="fill:#FF5722"></path><path d="M123.92,194.15a5.85,5.85,0,0,0-2.7,2.26,6.74,6.74,0,0,0-1.74,3.19,7.16,7.16,0,0,0,2.25,2.53c.93-.61,1.46-1.87,2.15-2.73a13,13,0,0,0,2.23-2.81,6.2,6.2,0,0,0-2.19-2.44Z" style="fill:#FF5722"></path><path d="M205.51,184a2.52,2.52,0,0,0-.67,1.42,3.32,3.32,0,0,0-.18,1.73c.12.5.85,1.12,1.17,1.47.13.15.89,1.11,1.09,1,.45-.22.4-1.21.46-1.68a6.86,6.86,0,0,0,0-1.92c-.05-.27-1.7-2.16-1.86-2Z" style="fill:#FF5722"></path><g style="opacity:0.2"><path d="M205.51,184a2.52,2.52,0,0,0-.67,1.42,3.32,3.32,0,0,0-.18,1.73c.12.5.85,1.12,1.17,1.47.13.15.89,1.11,1.09,1,.45-.22.4-1.21.46-1.68a6.86,6.86,0,0,0,0-1.92c-.05-.27-1.7-2.16-1.86-2Z"></path></g><path d="M418.55,128.3c-1.7-1.05-4-2.14-6-2-.52.05-2,2.28-2.13,2.24,1,.37,2.08.39,3.08.68a15.21,15.21,0,0,1,3,1.23c.37.2,2.08-2.2,2.09-2.2Z" style="fill:#FF5722"></path><path d="M240.55,237.16c-1.19,1.61-2.47,3.78-2.45,5.85,0,.51,2.1,2.21,2.06,2.3.45-.93.56-2,.93-3a15,15,0,0,1,1.48-2.87c.23-.35-2-2.25-2-2.26Z" style="fill:#FF5722"></path><path d="M156.57,173.57c-1.94-.48-4.43-.84-6.34,0-.47.2-1.24,2.78-1.35,2.78,1,.06,2.1-.26,3.15-.29a15,15,0,0,1,3.21.28c.42.07,1.32-2.74,1.33-2.74Z" style="fill:#FF5722"></path><path d="M228.82,180.31c-1.41-1.43-3.35-3-5.39-3.34-.51-.08-2.52,1.72-2.6,1.66.85.59,1.92.88,2.83,1.4a15.67,15.67,0,0,1,2.6,1.91c.31.29,2.55-1.64,2.56-1.63Z" style="fill:#FF5722"></path><path d="M105.15,159.33c-.19,0-.67.54-.15.19C105.07,159.41,105.13,159.33,105.15,159.33Z" style="fill:#FF5722"></path><path d="M101.25,167.75a5.44,5.44,0,0,0,1.35-1.64c.39-1.33.57-2.68,1.08-4,.13-.32.27-.65.42-1a13.87,13.87,0,0,1,1.13-2.52,24.25,24.25,0,0,0-3.71,4.74c-.8,1.41-2,3.83-1.53,5.49A15.62,15.62,0,0,0,101.25,167.75Z" style="fill:#FF5722"></path><path d="M101.25,167.75a5.44,5.44,0,0,0,1.35-1.64c.39-1.33.57-2.68,1.08-4,.13-.32.27-.65.42-1a13.87,13.87,0,0,1,1.13-2.52,24.25,24.25,0,0,0-3.71,4.74c-.8,1.41-2,3.83-1.53,5.49A15.62,15.62,0,0,0,101.25,167.75Z" style="opacity:0.2"></path><path d="M104.6,160.2s.24-.44.4-.68c-.52.35,0-.22.15-.19,0,0-.08.08-.15.19l.26-.2a15.32,15.32,0,0,1,7.65-2.89c.49-.06,1.14-1,1.45-1.32.15-.16,1.11-1.56,1.2-1.56-3.94-.05-7.33,2-10,4.75l-.33.34a13.87,13.87,0,0,0-1.13,2.52C104.25,160.83,104.42,160.51,104.6,160.2Z" style="fill:#FF5722"></path><path d="M418.18,142.4c.74.79,1.44,1.6,2.1,2.45s1.31,1.7,1.92,2.58,1.18,1.79,1.74,2.71S425,152,425.49,153c-.68-.63-1.35-1.23-2.05-1.79q-.51-.44-1.05-.84c-.34-.27-.7-.54-1.06-.8-.56-.86-1.15-1.71-1.77-2.53s-1.26-1.62-1.94-2.4-1.38-1.51-2.11-2.23a28.62,28.62,0,0,0-2.31-2,24.65,24.65,0,0,1,2.5.86l.63.25.62.28Q417.57,142.09,418.18,142.4Z" style="fill:#FF5722"></path><g style="opacity:0.2"><path d="M418.18,142.4c.74.79,1.44,1.6,2.1,2.45s1.31,1.7,1.92,2.58,1.18,1.79,1.74,2.71S425,152,425.49,153c-.68-.63-1.35-1.23-2.05-1.79q-.51-.44-1.05-.84c-.34-.27-.7-.54-1.06-.8-.56-.86-1.15-1.71-1.77-2.53s-1.26-1.62-1.94-2.4-1.38-1.51-2.11-2.23a28.62,28.62,0,0,0-2.31-2,24.65,24.65,0,0,1,2.5.86l.63.25.62.28Q417.57,142.09,418.18,142.4Z"></path></g><path d="M279.65,165.81a4.81,4.81,0,0,1-.3,2.07c-.26.74-.71,1.41-1,2.15a6.55,6.55,0,0,0,2.65,1.7,2.34,2.34,0,0,0,1.35-1.9,4.4,4.4,0,0,0-.5-2.59c-.14-.34-.76-.63-1.05-.82a13,13,0,0,1-1.19-.61Z" style="fill:#FF5722"></path><path d="M291.68,204.17c-.89-1.1-2.53-1.26-3.87-1.36s-3.07-.13-4.16.83c-.34.31-1.18,3.47-.81,3.73.87.6,2.9,0,4,0,1.3,0,2.87.64,4.11.24.4-.12,1-3.18.76-3.49Z" style="fill:#FF5722"></path><path d="M310.72,155.41c-1,.55-1.56,1.9-2,2.91a6.8,6.8,0,0,0-.81,3.54,7.11,7.11,0,0,0,2.85,1.83c.73-.84.9-2.2,1.33-3.21s1.28-2.18,1.39-3.3a6.2,6.2,0,0,0-2.76-1.77Z" style="fill:#FF5722"></path><path d="M412.23,170.29a5.87,5.87,0,0,0-2,2.91,6.72,6.72,0,0,0-.82,3.54,7.25,7.25,0,0,0,2.85,1.83c.73-.84.9-2.2,1.33-3.21s1.28-2.17,1.39-3.3c0-.34-2.47-1.93-2.76-1.77Z" style="fill:#FF5722"></path><path d="M324.48,205.85a5.87,5.87,0,0,0-2,2.91,6.72,6.72,0,0,0-.82,3.54,7.11,7.11,0,0,0,2.85,1.83c.73-.84.9-2.2,1.33-3.21s1.28-2.18,1.39-3.3a6.2,6.2,0,0,0-2.76-1.77Z" style="fill:#FF5722"></path><path d="M386.27,186.34a2.51,2.51,0,0,0-.26,1.56,3.24,3.24,0,0,0,.29,1.71c.25.45,1.12.85,1.52,1.1.16.1,1.15.82,1.33.67.37-.33.05-1.27,0-1.73a6.55,6.55,0,0,0-.53-1.85,7.19,7.19,0,0,0-2.33-1.46Z" style="fill:#FF5722"></path><g style="opacity:0.2"><path d="M386.27,186.34a2.51,2.51,0,0,0-.26,1.56,3.24,3.24,0,0,0,.29,1.71c.25.45,1.12.85,1.52,1.1.16.1,1.15.82,1.33.67.37-.33.05-1.27,0-1.73a6.55,6.55,0,0,0-.53-1.85,7.19,7.19,0,0,0-2.33-1.46Z"></path></g><path d="M367.76,158.5a2.53,2.53,0,0,0-.26,1.56,3.24,3.24,0,0,0,.3,1.71c.24.45,1.11.85,1.51,1.1.17.1,1.16.82,1.33.67.37-.32.05-1.27,0-1.73a6.24,6.24,0,0,0-.53-1.85,7.19,7.19,0,0,0-2.33-1.46Z" style="fill:#FF5722"></path><g style="opacity:0.2"><path d="M367.76,158.5a2.53,2.53,0,0,0-.26,1.56,3.24,3.24,0,0,0,.3,1.71c.24.45,1.11.85,1.51,1.1.17.1,1.16.82,1.33.67.37-.32.05-1.27,0-1.73a6.24,6.24,0,0,0-.53-1.85,7.19,7.19,0,0,0-2.33-1.46Z"></path></g><path d="M398.83,142.71c-.72,1.87-1.36,4.3-.78,6.29.14.49,2.62,1.56,2.6,1.66.18-1,0-2.11.08-3.15a15.42,15.42,0,0,1,.65-3.16c.13-.4-2.56-1.63-2.55-1.64Z" style="fill:#FF5722"></path><path d="M370.41,173.07c-.71,1.88-1.36,4.31-.78,6.29.14.5,2.62,1.56,2.6,1.67.18-1,0-2.12.08-3.16a14.8,14.8,0,0,1,.66-3.16c.12-.4-2.57-1.63-2.56-1.64Z" style="fill:#FF5722"></path><path d="M344.92,160.84c-.71,1.87-1.35,4.3-.78,6.29.15.49,2.62,1.56,2.61,1.66.18-1,0-2.11.08-3.15a15.42,15.42,0,0,1,.65-3.16c.12-.4-2.56-1.63-2.56-1.64Z" style="fill:#FF5722"></path><path d="M419.38,194.36c-2,0-4.5.38-6.11,1.67-.4.32-.45,3-.55,3,1-.22,1.95-.82,2.95-1.12a14.91,14.91,0,0,1,3.17-.6c.42,0,.53-3,.54-3Z" style="fill:#FF5722"></path><path d="M387.87,214c-1.74-1-4-2-6.09-1.77-.51.06-2,2.34-2.06,2.31,1,.34,2.1.32,3.11.58a15.5,15.5,0,0,1,3,1.14c.37.19,2-2.27,2-2.26Z" style="fill:#FF5722"></path><path d="M319.23,179.68c.2,0,.73-.46.18-.16C319.33,179.62,319.26,179.69,319.23,179.68Z" style="fill:#FF5722"></path><path d="M324,171.69c-.45.39-1.27.93-1.5,1.5-.52,1.28-.84,2.62-1.48,3.85q-.24.48-.51.93a13.81,13.81,0,0,1-1.37,2.39,23.75,23.75,0,0,0,4.16-4.34c.94-1.33,2.37-3.62,2.07-5.32C325.31,170.65,324,171.66,324,171.69Z" style="fill:#FF5722"></path><path d="M324,171.69c-.45.39-1.27.93-1.5,1.5-.52,1.28-.84,2.62-1.48,3.85q-.24.48-.51.93a13.81,13.81,0,0,1-1.37,2.39,23.75,23.75,0,0,0,4.16-4.34c.94-1.33,2.37-3.62,2.07-5.32C325.31,170.65,324,171.66,324,171.69Z" style="opacity:0.2"></path><path d="M319.87,178.87s-.28.42-.46.65c.55-.3,0,.21-.18.16,0,0,.1-.06.18-.16l-.28.16a15.31,15.31,0,0,1-7.9,2.13c-.49,0-1.23.86-1.58,1.17-.16.14-1.26,1.44-1.34,1.43,3.91.44,7.49-1.3,10.42-3.74l.36-.31a13.81,13.81,0,0,0,1.37-2.39A10.71,10.71,0,0,1,319.87,178.87Z" style="fill:#FF5722"></path><path d="M97.91,277.6c-1.07-.17-2.12-.39-3.16-.65s-2.08-.55-3.1-.87-2-.69-3-1.08-2-.82-3-1.28c.91.08,1.81.14,2.71.16l1.34,0,1.33,0c1,.34,2,.65,2.95.92s2,.51,3,.71,2,.35,3,.47,2,.15,3,.15c-.8.31-1.64.61-2.5.85l-.65.18-.66.15C98.8,277.42,98.36,277.51,97.91,277.6Z" style="fill:#FF5722"></path><g style="opacity:0.2"><path d="M97.91,277.6c-1.07-.17-2.12-.39-3.16-.65s-2.08-.55-3.1-.87-2-.69-3-1.08-2-.82-3-1.28c.91.08,1.81.14,2.71.16l1.34,0,1.33,0c1,.34,2,.65,2.95.92s2,.51,3,.71,2,.35,3,.47,2,.15,3,.15c-.8.31-1.64.61-2.5.85l-.65.18-.66.15C98.8,277.42,98.36,277.51,97.91,277.6Z"></path></g><path d="M259.11,254.19a4.77,4.77,0,0,1,.18-2.08c.21-.76.62-1.45.83-2.2.08-.26-2.45-1.69-2.74-1.55a2.33,2.33,0,0,0-1.23,2,4.34,4.34,0,0,0,.64,2.55c.16.33.8.58,1.1.76a13.29,13.29,0,0,1,1.22.54Z" style="fill:#FF5722"></path><path d="M252.38,217.24c-.14,1.41.93,2.68,1.83,3.68s2.1,2.23,3.56,2.3c.46,0,3.26-1.67,3.17-2.11-.2-1-2.06-2-2.8-2.8-.91-.94-1.62-2.45-2.79-3-.37-.19-2.94,1.57-3,2Z" style="fill:#FF5722"></path><path d="M259.37,194.63c.95,1.05,2.61,1.12,3.95,1.13s3.07,0,4.1-1.07c.33-.33,1-3.53.59-3.76-.9-.56-2.89.15-4,.17-1.3,0-2.9-.46-4.12,0-.39.15-.83,3.23-.56,3.53Z" style="fill:#FF5722"></path><path d="M237.56,167.54c.95,1.05,2.6,1.12,3.94,1.13s3.07,0,4.1-1.07c.33-.32,1-3.52.59-3.76-.89-.55-2.88.15-3.95.17-1.31,0-2.9-.46-4.13,0-.38.15-.82,3.23-.55,3.53Z" style="fill:#FF5722"></path><path d="M194.8,261.89a5.93,5.93,0,0,0,3.52.34,6.8,6.8,0,0,0,3.49-1,7.2,7.2,0,0,0,.22-3.38c-1.08-.24-2.35.27-3.45.38a12.71,12.71,0,0,0-3.56.37,6.31,6.31,0,0,0-.22,3.28Z" style="fill:#FF5722"></path><path d="M209.94,292a5.87,5.87,0,0,0,1.82-3,6.88,6.88,0,0,0,.62-3.58,7.13,7.13,0,0,0-3-1.66c-.67.87-.77,2.24-1.14,3.28a12.59,12.59,0,0,0-1.2,3.37,6.28,6.28,0,0,0,2.86,1.61Z" style="fill:#FF5722"></path><path d="M109.37,256.1a5.92,5.92,0,0,0,1.83-3,6.76,6.76,0,0,0,.61-3.58,7.27,7.27,0,0,0-3-1.66c-.68.88-.78,2.25-1.15,3.28a12.66,12.66,0,0,0-1.2,3.38,6.17,6.17,0,0,0,2.86,1.6Z" style="fill:#FF5722"></path><path d="M96.31,200.14a6,6,0,0,0,1.83-3,6.88,6.88,0,0,0,.61-3.58,7.27,7.27,0,0,0-3-1.66c-.68.87-.78,2.24-1.15,3.28a12.54,12.54,0,0,0-1.2,3.38,6.26,6.26,0,0,0,2.86,1.6Z" style="fill:#FF5722"></path><path d="M266.57,166.65a5.83,5.83,0,0,0,1.82-3,6.76,6.76,0,0,0,.61-3.58,7.15,7.15,0,0,0-2.95-1.66c-.68.87-.77,2.24-1.14,3.28a12.54,12.54,0,0,0-1.2,3.38,6.21,6.21,0,0,0,2.86,1.6Z" style="fill:#FF5722"></path><path d="M146.32,241.75a2.54,2.54,0,0,0,.17-1.57,3.22,3.22,0,0,0-.4-1.69c-.26-.43-1.16-.78-1.57-1-.17-.09-1.2-.76-1.37-.59-.35.34,0,1.27.12,1.72a6.44,6.44,0,0,0,.63,1.82,7.27,7.27,0,0,0,2.42,1.32Z" style="fill:#FF5722"></path><g style="opacity:0.2"><path d="M146.32,241.75a2.54,2.54,0,0,0,.17-1.57,3.22,3.22,0,0,0-.4-1.69c-.26-.43-1.16-.78-1.57-1-.17-.09-1.2-.76-1.37-.59-.35.34,0,1.27.12,1.72a6.44,6.44,0,0,0,.63,1.82,7.27,7.27,0,0,0,2.42,1.32Z"></path></g><path d="M214.44,241a2.48,2.48,0,0,0,.18-1.57,3.3,3.3,0,0,0-.4-1.69c-.26-.43-1.16-.79-1.58-1-.17-.1-1.2-.76-1.36-.6-.35.35,0,1.27.12,1.73a6.44,6.44,0,0,0,.63,1.82,7.33,7.33,0,0,0,2.41,1.32Z" style="fill:#FF5722"></path><g style="opacity:0.2"><path d="M214.44,241a2.48,2.48,0,0,0,.18-1.57,3.3,3.3,0,0,0-.4-1.69c-.26-.43-1.16-.79-1.58-1-.17-.1-1.2-.76-1.36-.6-.35.35,0,1.27.12,1.73a6.44,6.44,0,0,0,.63,1.82,7.33,7.33,0,0,0,2.41,1.32Z"></path></g><path d="M167.35,269.4c.6-1.91,1.11-4.38.42-6.33-.17-.48-2.71-1.4-2.7-1.51-.12,1,.14,2.11.1,3.16a14.38,14.38,0,0,1-.47,3.19c-.1.41,2.66,1.48,2.65,1.49Z" style="fill:#FF5722"></path><path d="M172.33,240.76c.6-1.91,1.11-4.38.41-6.33-.17-.48-2.7-1.4-2.69-1.51-.12,1,.14,2.11.1,3.16a15.65,15.65,0,0,1-.47,3.19c-.1.41,2.65,1.48,2.65,1.49Z" style="fill:#FF5722"></path><path d="M133.4,317c2-.17,4.47-.64,6-2,.38-.34.27-3,.37-3.07-1,.28-1.9.93-2.88,1.29a15.28,15.28,0,0,1-3.13.79c-.42.06-.36,3-.37,3Z" style="fill:#FF5722"></path><path d="M174.48,295c1.79.9,4.14,1.79,6.18,1.41.5-.09,1.82-2.44,1.92-2.42-1-.28-2.11-.2-3.13-.4a14.91,14.91,0,0,1-3.08-1c-.39-.16-1.88,2.39-1.89,2.38Z" style="fill:#FF5722"></path><path d="M84.26,241.23c0,.2.61.61.2.14C84.34,241.31,84.26,241.26,84.26,241.23Z" style="fill:#FF5722"></path><path d="M93.09,244.06a5.47,5.47,0,0,0-1.79-1.13c-1.37-.22-2.74-.24-4.08-.58l-1-.3a14.35,14.35,0,0,1-2.64-.8,24.34,24.34,0,0,0,5.16,3.09c1.5.62,4,1.51,5.64.84C94.41,245.16,93.13,244.09,93.09,244.06Z" style="fill:#FF5722"></path><path d="M93.09,244.06a5.47,5.47,0,0,0-1.79-1.13c-1.37-.22-2.74-.24-4.08-.58l-1-.3a14.35,14.35,0,0,1-2.64-.8,24.34,24.34,0,0,0,5.16,3.09c1.5.62,4,1.51,5.64.84C94.41,245.16,93.13,244.09,93.09,244.06Z" style="opacity:0.2"></path><path d="M85.19,241.68s-.48-.19-.73-.31c.41.47-.21.06-.2-.14,0,0,.08.08.2.14l-.23-.24a15.24,15.24,0,0,1-3.82-7.23c-.12-.48-1.11-1-1.49-1.28-.17-.12-1.69-.91-1.7-1,.44,3.91,2.93,7,6,9.33l.37.29a14.35,14.35,0,0,0,2.64.8C85.86,241.94,85.52,241.82,85.19,241.68Z" style="fill:#FF5722"></path><path d="M195.45,211c-.17-.09-.81.3-.2.12C195.35,211.08,195.43,211,195.45,211Z" style="fill:#FF5722"></path><path d="M189.09,217.8a5.47,5.47,0,0,0,1.79-1.14c.8-1.13,1.4-2.36,2.29-3.43.23-.27.46-.53.71-.79a14.32,14.32,0,0,1,1.86-2,24.35,24.35,0,0,0-5,3.32c-1.21,1.09-3.11,3-3.19,4.73C187.54,218.51,189.05,217.82,189.09,217.8Z" style="fill:#FF5722"></path><path d="M189.09,217.8a5.47,5.47,0,0,0,1.79-1.14c.8-1.13,1.4-2.36,2.29-3.43.23-.27.46-.53.71-.79a14.32,14.32,0,0,1,1.86-2,24.35,24.35,0,0,0-5,3.32c-1.21,1.09-3.11,3-3.19,4.73C187.54,218.51,189.05,217.82,189.09,217.8Z" style="opacity:0.2"></path><path d="M194.65,211.69s.37-.35.6-.53c-.61.18,0-.21.2-.12,0,0-.1,0-.2.12a2.08,2.08,0,0,0,.3-.1,15.22,15.22,0,0,1,8.17-.32c.49.1,1.4-.57,1.8-.8.19-.1,1.55-1.13,1.63-1.1-3.71-1.29-7.59-.39-11,1.35l-.42.22a14.32,14.32,0,0,0-1.86,2C194.12,212.18,194.38,211.93,194.65,211.69Z" style="fill:#FF5722"></path><path d="M403.26,213.77c.76.76,1.49,1.55,2.18,2.37s1.36,1.66,2,2.52,1.24,1.75,1.83,2.65,1.13,1.82,1.64,2.77c-.69-.6-1.39-1.18-2.1-1.72-.36-.27-.71-.54-1.08-.8l-1.09-.76c-.59-.84-1.21-1.67-1.86-2.47s-1.32-1.58-2-2.33-1.44-1.47-2.19-2.15a26.77,26.77,0,0,0-2.38-1.9,24.38,24.38,0,0,1,2.53.77l.63.24.63.26C402.43,213.39,402.84,213.57,403.26,213.77Z" style="fill:#FF5722"></path><g style="opacity:0.2"><path d="M403.26,213.77c.76.76,1.49,1.55,2.18,2.37s1.36,1.66,2,2.52,1.24,1.75,1.83,2.65,1.13,1.82,1.64,2.77c-.69-.6-1.39-1.18-2.1-1.72-.36-.27-.71-.54-1.08-.8l-1.09-.76c-.59-.84-1.21-1.67-1.86-2.47s-1.32-1.58-2-2.33-1.44-1.47-2.19-2.15a26.77,26.77,0,0,0-2.38-1.9,24.38,24.38,0,0,1,2.53.77l.63.24.63.26C402.43,213.39,402.84,213.57,403.26,213.77Z"></path></g><path d="M300.39,229.44A4.59,4.59,0,0,1,299,231c-.62.49-1.35.82-2,1.3a6.28,6.28,0,0,0,1.32,2.85,2.3,2.3,0,0,0,2.16-.88,4.49,4.49,0,0,0,1-2.44c.06-.36-.31-.94-.46-1.26-.06-.13-.69-1.09-.67-1.16Z" style="fill:#FF5722"></path><path d="M360.57,236.55c-.15-1.41-1.46-2.43-2.54-3.23s-2.51-1.75-3.95-1.52c-.46.07-2.86,2.28-2.68,2.7.41,1,2.43,1.57,3.31,2.17,1.08.74,2.08,2.08,3.35,2.42.4.1,2.56-2.14,2.51-2.54Z" style="fill:#FF5722"></path><path d="M378.59,203.11a6,6,0,0,0-3.25,1.39,6.75,6.75,0,0,0-2.59,2.55,7.29,7.29,0,0,0,1.43,3.07c1.06-.31,1.94-1.37,2.84-2a12.6,12.6,0,0,0,3-2c.21-.27-1.06-3-1.38-3Z" style="fill:#FF5722"></path><path d="M422.17,253a5.82,5.82,0,0,0-1.89,3,6.72,6.72,0,0,0-.7,3.56,7.33,7.33,0,0,0,2.91,1.73c.7-.86.83-2.23,1.23-3.25s1.2-2.22,1.27-3.35a6.16,6.16,0,0,0-2.82-1.67Z" style="fill:#FF5722"></path><path d="M256.46,306.4a5.92,5.92,0,0,0-1.76-3.06,6.73,6.73,0,0,0-2.84-2.27,7.15,7.15,0,0,0-2.88,1.77c.44,1,1.59,1.77,2.31,2.6s1.41,2.09,2.38,2.68c.29.18,2.81-1.4,2.79-1.72Z" style="fill:#FF5722"></path><path d="M390.76,298.71c-.53.22-.76.7-1.05,1.17a3.2,3.2,0,0,0-.67,1.6,4.55,4.55,0,0,0,.69,1.75c.08.17.53,1.31.75,1.27.49-.07.73-1,.92-1.47a6.58,6.58,0,0,0,.55-1.85,7.11,7.11,0,0,0-1.19-2.47Z" style="fill:#FF5722"></path><g style="opacity:0.2"><path d="M390.76,298.71c-.53.22-.76.7-1.05,1.17a3.2,3.2,0,0,0-.67,1.6,4.55,4.55,0,0,0,.69,1.75c.08.17.53,1.31.75,1.27.49-.07.73-1,.92-1.47a6.58,6.58,0,0,0,.55-1.85,7.11,7.11,0,0,0-1.19-2.47Z"></path></g><path d="M320.73,284.05c-.53.22-.76.7-1.05,1.17a3.17,3.17,0,0,0-.67,1.6,4.59,4.59,0,0,0,.68,1.74c.09.18.54,1.32.76,1.28.49-.07.73-1,.92-1.47a6.58,6.58,0,0,0,.55-1.85,7.11,7.11,0,0,0-1.19-2.47Z" style="fill:#FF5722"></path><g style="opacity:0.2"><path d="M320.73,284.05c-.53.22-.76.7-1.05,1.17a3.17,3.17,0,0,0-.67,1.6,4.59,4.59,0,0,0,.68,1.74c.09.18.54,1.32.76,1.28.49-.07.73-1,.92-1.47a6.58,6.58,0,0,0,.55-1.85,7.11,7.11,0,0,0-1.19-2.47Z"></path></g><path d="M329,248.38c-.53.22-.76.7-1.05,1.17a3.17,3.17,0,0,0-.67,1.6,4.45,4.45,0,0,0,.69,1.74c.08.18.53,1.32.76,1.28.49-.07.72-1,.91-1.47a6.58,6.58,0,0,0,.55-1.85,7.11,7.11,0,0,0-1.19-2.47Z" style="fill:#FF5722"></path><g style="opacity:0.2"><path d="M329,248.38c-.53.22-.76.7-1.05,1.17a3.17,3.17,0,0,0-.67,1.6,4.45,4.45,0,0,0,.69,1.74c.08.18.53,1.32.76,1.28.49-.07.72-1,.91-1.47a6.58,6.58,0,0,0,.55-1.85,7.11,7.11,0,0,0-1.19-2.47Z"></path></g><path d="M401,237c-1.61,1.2-3.46,2.91-4,4.89-.14.49,1.38,2.73,1.3,2.8.7-.76,1.13-1.79,1.77-2.61a15,15,0,0,1,2.25-2.32c.32-.27-1.29-2.75-1.28-2.76Z" style="fill:#FF5722"></path><path d="M403.52,275.68c-1.88-.7-4.32-1.32-6.3-.72-.49.15-1.53,2.64-1.63,2.62,1,.17,2.11,0,3.15.05a15.6,15.6,0,0,1,3.17.62c.4.12,1.6-2.58,1.61-2.57Z" style="fill:#FF5722"></path><path d="M430.46,210.44c-1.72-1-4-2.09-6-1.87-.51.05-2,2.3-2.1,2.27,1,.35,2.09.35,3.09.63a15.28,15.28,0,0,1,3,1.2c.38.19,2.05-2.24,2.06-2.23Z" style="fill:#FF5722"></path><path d="M378.92,243.9c-.93-1.78-2.33-3.87-4.19-4.76-.47-.22-2.91.93-3,.84.65.81,1.6,1.4,2.31,2.16a15.3,15.3,0,0,1,1.93,2.59c.22.35,2.92-.84,2.93-.83Z" style="fill:#FF5722"></path><path d="M344.56,275.05c.18-.07.32-.8,0-.24A.59.59,0,0,1,344.56,275.05Z" style="fill:#FF5722"></path><path d="M343.77,265.8a5.28,5.28,0,0,0-.35,2.1c.31,1.34.83,2.61,1,4,.05.35.09.7.11,1.05a14,14,0,0,1,.27,2.75,23.64,23.64,0,0,0,.87-5.95c0-1.63-.16-4.32-1.39-5.53C344.27,264.17,343.78,265.76,343.77,265.8Z" style="fill:#FF5722"></path><path d="M343.77,265.8a5.28,5.28,0,0,0-.35,2.1c.31,1.34.83,2.61,1,4,.05.35.09.7.11,1.05a14,14,0,0,1,.27,2.75,23.64,23.64,0,0,0,.87-5.95c0-1.63-.16-4.32-1.39-5.53C344.27,264.17,343.78,265.76,343.77,265.8Z" style="opacity:0.2"></path><path d="M344.61,274c0,.05,0,.51,0,.79.28-.56.14.17,0,.24a.59.59,0,0,0,0-.24c0,.08-.08.17-.13.3a15.21,15.21,0,0,1-5.2,6.31c-.4.29-.51,1.41-.61,1.87-.05.2-.19,1.9-.27,1.95,3.44-1.91,5.35-5.4,6.33-9.1,0-.15.07-.3.11-.45a14,14,0,0,0-.27-2.75C344.59,273.3,344.61,273.66,344.61,274Z" style="fill:#FF5722"></path><path d="M290.69,283.49c0,.2.74.45.23.09C290.79,283.55,290.7,283.52,290.69,283.49Z" style="fill:#FF5722"></path><path d="M299.94,284.31a5.5,5.5,0,0,0-2-.71c-1.38.08-2.71.37-4.11.33-.35,0-.7,0-1.05-.07a14.1,14.1,0,0,1-2.75-.21,23.63,23.63,0,0,0,5.71,1.89c1.6.27,4.28.59,5.68-.42C301.46,285.09,300,284.33,299.94,284.31Z" style="fill:#FF5722"></path><path d="M299.94,284.31a5.5,5.5,0,0,0-2-.71c-1.38.08-2.71.37-4.11.33-.35,0-.7,0-1.05-.07a14.1,14.1,0,0,1-2.75-.21,23.63,23.63,0,0,0,5.71,1.89c1.6.27,4.28.59,5.68-.42C301.46,285.09,300,284.33,299.94,284.31Z" style="opacity:0.2"></path><path d="M291.7,283.72l-.78-.14c.51.36-.19.11-.23-.09,0,0,.1.06.23.09l-.27-.18a15.25,15.25,0,0,1-5.31-6.22c-.23-.44-1.31-.74-1.74-.92-.2-.09-1.85-.52-1.88-.6,1.29,3.72,4.4,6.2,7.87,7.8l.43.19a14.1,14.1,0,0,0,2.75.21C292.41,283.83,292.05,283.78,291.7,283.72Z" style="fill:#FF5722"></path><path d="M222.28,213.11s0,0,0,0Z" style="fill:#FF5722"></path><path d="M224.54,204.07a15.71,15.71,0,0,0-3.15,4.7,8.72,8.72,0,0,0-.82,2.53c-.09.85.42,1.23,1.09,1.64a7.15,7.15,0,0,0,.77.42l-.09-.19a2.29,2.29,0,0,1-.17-.62l-.06,0h0a2,2,0,0,1,0-.49,12.39,12.39,0,0,1,1.35-3.81,20.23,20.23,0,0,1,2.25-3.52S224.66,204,224.54,204.07Zm-2.26,9s0,0,0,0Z" style="fill:#FF5722"></path><path d="M231.84,208.28h0v0Z" style="fill:#FF5722"></path><path d="M231.85,207.67a.19.19,0,0,0,0,.08v.14c0,.12,0,.24,0,.35v0a3.14,3.14,0,0,0-.78.27,20.41,20.41,0,0,0-2.59,1.62c-.85.57-1.68,1.16-2.49,1.78a6.49,6.49,0,0,1-2.48,1.58,1.86,1.86,0,0,1-1.06-.18l-.09-.19a2.29,2.29,0,0,1-.17-.62,4.39,4.39,0,0,0,1.29-.83c1.07-.84,2.17-1.65,3.29-2.41a14.5,14.5,0,0,1,3.09-1.86A2.31,2.31,0,0,1,231.85,207.67Z" style="fill:#FF5722"></path><path d="M231.85,207.67a.19.19,0,0,0,0,.08v.14c0,.12,0,.24,0,.35v0a3.14,3.14,0,0,0-.78.27,20.41,20.41,0,0,0-2.59,1.62c-.85.57-1.68,1.16-2.49,1.78a6.49,6.49,0,0,1-2.48,1.58,1.86,1.86,0,0,1-1.06-.18l-.09-.19a2.29,2.29,0,0,1-.17-.62,4.39,4.39,0,0,0,1.29-.83c1.07-.84,2.17-1.65,3.29-2.41a14.5,14.5,0,0,1,3.09-1.86A2.31,2.31,0,0,1,231.85,207.67Z" style="opacity:0.2"></path><path d="M233.1,210.23a34.15,34.15,0,0,1-2.27,3.49c-.8,1.2-1.58,2.41-2.36,3.62a6.56,6.56,0,0,0-1.05,1.93l0,0a1.25,1.25,0,0,0,.29,1,1.31,1.31,0,0,0,.21.2A3.13,3.13,0,0,1,227,220c-.6-.36-1.24-.68-1.14-1.48a5.1,5.1,0,0,1,1.08-2.09q1.88-2.82,3.72-5.65c.43-.67,1.28-1.63,1.17-2.52v0c0-.11,0-.23,0-.35v-.14a.19.19,0,0,1,0-.08l.4.23c.37.23.86.48,1,.91A1.78,1.78,0,0,1,233.1,210.23Z" style="fill:#FF5722"></path><path d="M237.64,216A10.88,10.88,0,0,1,235,220.5c-.14.14-1.49-.83-1.47-.87a19.47,19.47,0,0,0,1.72-2.69,13,13,0,0,0,.64-1.48,2.83,2.83,0,0,0,.2-.81.69.69,0,0,0,0-.21l.21,0a1.22,1.22,0,0,1,.27,0q.28.06.24,0a1.17,1.17,0,0,1,.26,0A1.34,1.34,0,0,1,237.64,216Z" style="fill:#FF5722"></path><path d="M237.07,214.43a1.17,1.17,0,0,0-.26,0,1.74,1.74,0,0,0-.51,0l-.22,0h0a2.66,2.66,0,0,0-.6.26,9,9,0,0,0-1.28,1L231.57,218a26.67,26.67,0,0,1-2.57,2.18,1.36,1.36,0,0,1-1.05.26,1.31,1.31,0,0,1-.21-.2,1.25,1.25,0,0,1-.29-1,11.13,11.13,0,0,0,1.32-1.16l2.21-1.92c.76-.66,1.5-1.33,2.27-2a2.51,2.51,0,0,1,1.88-.75,4.83,4.83,0,0,1,1.93,1Z" style="fill:#FF5722"></path><path d="M237.07,214.43a1.17,1.17,0,0,0-.26,0,1.74,1.74,0,0,0-.51,0l-.22,0h0a2.66,2.66,0,0,0-.6.26,9,9,0,0,0-1.28,1L231.57,218a26.67,26.67,0,0,1-2.57,2.18,1.36,1.36,0,0,1-1.05.26,1.31,1.31,0,0,1-.21-.2,1.25,1.25,0,0,1-.29-1,11.13,11.13,0,0,0,1.32-1.16l2.21-1.92c.76-.66,1.5-1.33,2.27-2a2.51,2.51,0,0,1,1.88-.75,4.83,4.83,0,0,1,1.93,1Z" style="opacity:0.2"></path><path d="M236.3,214.4l-.21,0h0Z" style="fill:#FF5722"></path><path d="M236.57,214.39a1.22,1.22,0,0,0-.27,0,1.74,1.74,0,0,1,.51,0S236.76,214.43,236.57,214.39Z" style="fill:#FF5722"></path><path d="M237.1,267.68h0Z" style="fill:#FF5722"></path><path d="M235.72,274.27a11.71,11.71,0,0,0,2.23-3.53,6.48,6.48,0,0,0,.52-1.85c0-.62-.37-.86-.89-1.12a5.59,5.59,0,0,0-.61-.26l.08.13a1.43,1.43,0,0,1,.15.44l.05,0h0a1.36,1.36,0,0,1,0,.35,8.75,8.75,0,0,1-.89,2.79,14.32,14.32,0,0,1-1.59,2.65S235.63,274.37,235.72,274.27Zm1.38-6.59h0Z" style="fill:#FF5722"></path><path d="M230,271.66h0v0Z" style="fill:#FF5722"></path><path d="M230,272.1a.13.13,0,0,1,0-.06.34.34,0,0,1,0-.1,2.09,2.09,0,0,1,0-.25v0a4.29,4.29,0,0,0,.59-.24,17.83,17.83,0,0,0,1.91-1.3q.93-.69,1.83-1.41a5.25,5.25,0,0,1,1.83-1.27,1.59,1.59,0,0,1,.81.07l.08.13a1.43,1.43,0,0,1,.15.44,3.48,3.48,0,0,0-.95.67c-.78.65-1.59,1.29-2.42,1.9a11.52,11.52,0,0,1-2.28,1.5A1.87,1.87,0,0,1,230,272.1Z" style="fill:#FF5722"></path><path d="M230,272.1a.13.13,0,0,1,0-.06.34.34,0,0,1,0-.1,2.09,2.09,0,0,1,0-.25v0a4.29,4.29,0,0,0,.59-.24,17.83,17.83,0,0,0,1.91-1.3q.93-.69,1.83-1.41a5.25,5.25,0,0,1,1.83-1.27,1.59,1.59,0,0,1,.81.07l.08.13a1.43,1.43,0,0,1,.15.44,3.48,3.48,0,0,0-.95.67c-.78.65-1.59,1.29-2.42,1.9a11.52,11.52,0,0,1-2.28,1.5A1.87,1.87,0,0,1,230,272.1Z" style="opacity:0.2"></path><path d="M229,270.34a23.52,23.52,0,0,1,1.6-2.62c.56-.9,1.11-1.81,1.66-2.72a4.75,4.75,0,0,0,.73-1.44l0,0a.85.85,0,0,0-.25-.69,1.09,1.09,0,0,0-.17-.13,2.39,2.39,0,0,1,.73.24c.48.22,1,.42.93,1a3.61,3.61,0,0,1-.75,1.55c-.88,1.41-1.76,2.83-2.62,4.24-.31.51-.92,1.24-.8,1.87v0a2.09,2.09,0,0,0,0,.25.34.34,0,0,0,0,.1.13.13,0,0,0,0,.06l-.31-.14c-.3-.15-.68-.3-.83-.6A1.16,1.16,0,0,1,229,270.34Z" style="fill:#FF5722"></path><path d="M225.28,266.46a7.78,7.78,0,0,1,1.84-3.36c.1-.11,1.16.51,1.14.54a15.42,15.42,0,0,0-1.21,2,10.28,10.28,0,0,0-.43,1.09,2,2,0,0,0-.12.59.61.61,0,0,0,0,.15l-.16,0-.21,0c-.15,0-.21,0-.18,0l-.2,0A.9.9,0,0,1,225.28,266.46Z" style="fill:#FF5722"></path><path d="M225.77,267.55l.2,0a1.72,1.72,0,0,0,.39,0l.16,0h0a1.78,1.78,0,0,0,.44-.21,7.22,7.22,0,0,0,.94-.8l1.92-1.77a21.79,21.79,0,0,1,1.88-1.71,1.16,1.16,0,0,1,.79-.24,1.09,1.09,0,0,1,.17.13.85.85,0,0,1,.25.69,7.67,7.67,0,0,0-1,.9L230.35,266c-.55.51-1.1,1-1.66,1.53a2,2,0,0,1-1.41.64,3.67,3.67,0,0,1-1.5-.58Z" style="fill:#FF5722"></path><path d="M225.77,267.55l.2,0a1.72,1.72,0,0,0,.39,0l.16,0h0a1.78,1.78,0,0,0,.44-.21,7.22,7.22,0,0,0,.94-.8l1.92-1.77a21.79,21.79,0,0,1,1.88-1.71,1.16,1.16,0,0,1,.79-.24,1.09,1.09,0,0,1,.17.13.85.85,0,0,1,.25.69,7.67,7.67,0,0,0-1,.9L230.35,266c-.55.51-1.1,1-1.66,1.53a2,2,0,0,1-1.41.64,3.67,3.67,0,0,1-1.5-.58Z" style="opacity:0.2"></path><path d="M226.36,267.53l.16,0h0Z" style="fill:#FF5722"></path><path d="M226.15,267.55l.21,0a1.72,1.72,0,0,1-.39,0S226,267.53,226.15,267.55Z" style="fill:#FF5722"></path><path d="M285.87,254.57s0,0,0,0Z" style="fill:#FF5722"></path><path d="M288.16,260.73a13.45,13.45,0,0,1-1.58-2.65,8.27,8.27,0,0,1-.89-2.79,1.37,1.37,0,0,1,0-.35h0l.05,0a1.69,1.69,0,0,1,.15-.43.57.57,0,0,1,.08-.13,4.66,4.66,0,0,0-.61.26c-.52.25-.93.49-.89,1.11a6.11,6.11,0,0,0,.53,1.85,11.38,11.38,0,0,0,2.23,3.54C287.33,261.25,288.17,260.74,288.16,260.73Zm-2.32-6.15s0,0,0,0Z" style="fill:#FF5722"></path><path d="M293,258.54h0v0Z" style="fill:#FF5722"></path><path d="M293,259v-.06a.28.28,0,0,0,0-.09,1.13,1.13,0,0,0,0-.26v0a2.36,2.36,0,0,1-.59-.24,15.66,15.66,0,0,1-1.91-1.3c-.63-.45-1.24-.92-1.84-1.41a5,5,0,0,0-1.83-1.26,1.49,1.49,0,0,0-.81.07.57.57,0,0,0-.08.13,1.69,1.69,0,0,0-.15.43,3.55,3.55,0,0,1,.95.67c.79.66,1.59,1.29,2.42,1.9a11.59,11.59,0,0,0,2.29,1.5A1.87,1.87,0,0,0,293,259Z" style="fill:#FF5722"></path><path d="M293,259v-.06a.28.28,0,0,0,0-.09,1.13,1.13,0,0,0,0-.26v0a2.36,2.36,0,0,1-.59-.24,15.66,15.66,0,0,1-1.91-1.3c-.63-.45-1.24-.92-1.84-1.41a5,5,0,0,0-1.83-1.26,1.49,1.49,0,0,0-.81.07.57.57,0,0,0-.08.13,1.69,1.69,0,0,0-.15.43,3.55,3.55,0,0,1,.95.67c.79.66,1.59,1.29,2.42,1.9a11.59,11.59,0,0,0,2.29,1.5A1.87,1.87,0,0,0,293,259Z" style="opacity:0.2"></path><path d="M294,257.22a25.61,25.61,0,0,0-1.61-2.62c-.56-.9-1.1-1.81-1.66-2.72a4.62,4.62,0,0,1-.72-1.44l0,0a.83.83,0,0,1,.26-.69,1,1,0,0,1,.16-.12,2.15,2.15,0,0,0-.73.24c-.47.22-1,.41-.92,1a3.68,3.68,0,0,0,.74,1.56q1.33,2.12,2.62,4.24c.31.5.92,1.23.81,1.86v0a1.13,1.13,0,0,1,0,.26.28.28,0,0,1,0,.09V259l.31-.14a1.79,1.79,0,0,0,.83-.59A1.24,1.24,0,0,0,294,257.22Z" style="fill:#FF5722"></path><path d="M297.69,253.34a8,8,0,0,0-1.84-3.36c-.1-.1-1.17.52-1.15.54a15.42,15.42,0,0,1,1.21,2,11.2,11.2,0,0,1,.43,1.09,2.13,2.13,0,0,1,.12.6.3.3,0,0,1,0,.14l.16,0h.21c.15,0,.21,0,.19,0h.19A.93.93,0,0,0,297.69,253.34Z" style="fill:#FF5722"></path><path d="M297.19,254.44H297a1.33,1.33,0,0,1-.4,0l-.16,0h0a1.88,1.88,0,0,1-.45-.22,6.52,6.52,0,0,1-.94-.8l-1.91-1.77a23.25,23.25,0,0,0-1.88-1.7,1.08,1.08,0,0,0-.8-.24,1,1,0,0,0-.16.12.83.83,0,0,0-.26.69,9.5,9.5,0,0,1,1,.9l1.62,1.5c.55.51,1.09,1,1.65,1.53a2,2,0,0,0,1.41.64,3.73,3.73,0,0,0,1.51-.59Z" style="fill:#FF5722"></path><path d="M297.19,254.44H297a1.33,1.33,0,0,1-.4,0l-.16,0h0a1.88,1.88,0,0,1-.45-.22,6.52,6.52,0,0,1-.94-.8l-1.91-1.77a23.25,23.25,0,0,0-1.88-1.7,1.08,1.08,0,0,0-.8-.24,1,1,0,0,0-.16.12.83.83,0,0,0-.26.69,9.5,9.5,0,0,1,1,.9l1.62,1.5c.55.51,1.09,1,1.65,1.53a2,2,0,0,0,1.41.64,3.73,3.73,0,0,0,1.51-.59Z" style="opacity:0.2"></path><path d="M296.6,254.42l-.16,0h0Z" style="fill:#FF5722"></path><path d="M296.81,254.43h-.21a1.33,1.33,0,0,0,.4,0S297,254.42,296.81,254.43Z" style="fill:#FF5722"></path><path d="M254.72,280.57l0-.23h0Q254.57,280,254.72,280.57Z" style="fill:#FF5722"></path><path d="M256.58,284.11s0-.06,0-.1S256.58,283.9,256.58,284.11Z" style="fill:#FF5722"></path><path d="M254.71,279.62a4.26,4.26,0,0,1,.21-1,5,5,0,0,1,1.2-1.92A5.3,5.3,0,0,1,257,276c.37-.24.65-.5,1-.76a2.62,2.62,0,0,0-.3-1.22,2,2,0,0,0-.65,0,1.71,1.71,0,0,0-.48.21,4.61,4.61,0,0,0-.92.67,4.68,4.68,0,0,0-1.16,1.72,6.61,6.61,0,0,0,.05,4.08v0a7.31,7.31,0,0,1,.14-.92S254.71,279.67,254.71,279.62Z" style="fill:#FF5722"></path><path d="M256.58,284.11a.52.52,0,0,0,0,.11v0l0-.12Z" style="fill:#FF5722"></path><path d="M257,286a5.32,5.32,0,0,0-.37-2.63,4.18,4.18,0,0,1,0,.61v.09c0,.19,0,.23,0,.14v.08a2.7,2.7,0,0,1-.2.74,4,4,0,0,1-.53.92,14.2,14.2,0,0,1-2,1.92c-.2.18.43,1.52.38,1.55A5.31,5.31,0,0,0,257,286Z" style="fill:#FF5722"></path><path d="M257,286a5.32,5.32,0,0,0-.37-2.63,4.18,4.18,0,0,1,0,.61v.09c0,.19,0,.23,0,.14v.08a2.7,2.7,0,0,1-.2.74,4,4,0,0,1-.53.92,14.2,14.2,0,0,1-2,1.92c-.2.18.43,1.52.38,1.55A5.31,5.31,0,0,0,257,286Z" style="fill:#FF5722"></path><path d="M256.6,284.1V284s0,.07,0,.1h0l0,.12C256.63,284.33,256.64,284.29,256.6,284.1Z" style="fill:#FF5722"></path><path d="M256.6,284a4.18,4.18,0,0,0,0-.61,4.92,4.92,0,0,0-.62-1.16c-.24-.32-.51-.61-.76-.93s-.35-.72-.57-1l0,.23q-.15-.54,0-.24h0c0-.2,0-.38,0-.58a7.31,7.31,0,0,0-.14.92,7.68,7.68,0,0,0,.71,1.87,5.13,5.13,0,0,0,.62.85c.15.18.31.34.46.53l.14.18a.63.63,0,0,0,.07.12.52.52,0,0,1,0-.11C256.58,283.9,256.59,283.87,256.6,284Z" style="fill:#FF5722"></path><path d="M256.6,284a4.18,4.18,0,0,0,0-.61,4.92,4.92,0,0,0-.62-1.16c-.24-.32-.51-.61-.76-.93s-.35-.72-.57-1l0,.23q-.15-.54,0-.24h0c0-.2,0-.38,0-.58a7.31,7.31,0,0,0-.14.92,7.68,7.68,0,0,0,.71,1.87,5.13,5.13,0,0,0,.62.85c.15.18.31.34.46.53l.14.18a.63.63,0,0,0,.07.12.52.52,0,0,1,0-.11C256.58,283.9,256.59,283.87,256.6,284Z" style="opacity:0.2"></path></g></svg>